<svg width="24" height="24" viewBox="0 0 24 24" fill="none" xmlns="http://www.w3.org/2000/svg">
<path d="M13.2381 12.0001L18.7435 6.49459C19.0855 6.15283 19.0855 5.5983 18.7435 5.25654C18.4014 4.91449 17.8475 4.91449 17.5055 5.25654L12.0001 10.7621L6.49453 5.25654C6.15249 4.91449 5.59857 4.91449 5.25653 5.25654C4.91449 5.5983 4.91449 6.15283 5.25653 6.49459L10.7621 12.0001L5.25653 17.5057C4.91449 17.8475 4.91449 18.402 5.25653 18.7438C5.42755 18.9145 5.65169 19 5.87553 19C6.09937 19 6.32351 18.9145 6.49453 18.7435L12.0001 13.2379L17.5055 18.7435C17.6765 18.9145 17.9006 19 18.1245 19C18.3483 19 18.5724 18.9145 18.7435 18.7435C19.0855 18.4017 19.0855 17.8472 18.7435 17.5054L13.2381 12.0001Z" fill="#1D1D1B"/>
</svg>
